<?xml version="1.0" standalone="no"?>
<!DOCTYPE svg PUBLIC "-//W3C//DTD SVG 20010904//EN"
 "http://www.w3.org/TR/2001/REC-SVG-20010904/DTD/svg10.dtd">
<svg version="1.0" xmlns="http://www.w3.org/2000/svg"
 width="500.000000pt" height="500.000000pt" viewBox="0 0 500.000000 500.000000"
 preserveAspectRatio="xMidYMid meet">

<g transform="translate(0.000000,500.000000) scale(0.100000,-0.100000)"
fill="#000000" stroke="none">
<path d="M1345 4114 c-91 -17 -199 -59 -250 -96 -128 -95 -192 -169 -242 -278
-49 -108 -48 -80 -48 -1290 l0 -1135 23 -70 c56 -169 159 -289 323 -379 36
-20 101 -45 144 -56 76 -19 110 -20 1204 -20 1081 0 1129 1 1203 20 236 59
412 230 479 465 21 74 21 2295 0 2370 -28 101 -91 206 -171 285 -120 118 -248
177 -410 186 -193 12 -2193 9 -2255 -2z m1470 -229 c153 -27 333 -83 355 -110
9 -11 4 -25 -21 -62 -18 -26 -39 -54 -46 -63 -6 -8 -44 -59 -83 -112 -39 -54
-75 -98 -78 -98 -4 0 -42 11 -85 25 -310 99 -653 16 -885 -215 -99 -99 -161
-197 -204 -326 -20 -60 -23 -88 -23 -214 1 -95 6 -159 15 -185 19 -57 17 -312
-3 -386 -39 -143 -113 -273 -207 -364 l-52 -50 25 50 c68 132 97 302 78 443
-6 48 -16 103 -21 122 -6 19 -27 98 -48 175 -54 193 -62 244 -62 374 0 418
292 811 705 948 157 53 208 60 395 62 105 0 194 -5 245 -14z m-25 -475 c63
-15 195 -81 256 -127 28 -21 91 -76 139 -122 69 -64 85 -85 74 -92 -47 -32
-223 -126 -311 -168 -232 -111 -412 -178 -658 -246 -52 -14 -112 -37 -132 -50
-67 -44 -94 -133 -67 -216 15 -43 66 -112 101 -136 26 -17 28 -22 28 -92 0
-191 -106 -330 -251 -331 -43 0 -148 16 -156 24 -2 2 15 37 37 79 46 85 56
112 76 212 27 133 12 235 -62 420 -24 61 -28 84 -28 180 -1 188 59 321 210
466 110 105 206 160 354 201 91 25 285 25 390 -2z m639 -463 c58 -40 105 -76
105 -82 1 -11 -65 -35 -144 -53 -30 -7 -71 -17 -90 -22 -19 -4 -82 -20 -140
-33 -123 -30 -261 -70 -312 -92 -27 -11 -65 -49 -138 -140 -56 -69 -122 -141
-148 -160 -109 -79 -276 -97 -346 -36 -28 25 -56 86 -56 125 0 62 41 96 150
126 155 42 375 121 530 191 167 76 384 189 440 230 14 10 30 18 35 18 6 0 57
-32 114 -72z m-105 -244 c2 -16 8 -64 11 -108 5 -54 21 -123 50 -210 74 -222
74 -225 -41 -225 -67 0 -74 -2 -74 -20 0 -13 7 -20 18 -20 15 0 18 -7 16 -42
-2 -39 -4 -43 -35 -50 -19 -5 -52 -13 -74 -19 -37 -11 -38 -12 -17 -20 13 -5
28 -6 33 -3 6 3 21 3 35 0 34 -9 31 -39 -7 -74 -31 -29 -31 -29 -19 -80 16
-59 3 -103 -37 -129 -45 -30 -223 -1 -370 60 -36 15 -63 21 -63 15 0 -6 18
-28 40 -49 l40 -38 -11 -48 c-26 -117 -39 -215 -40 -302 l0 -94 68 -69 c37
-39 108 -102 157 -141 l89 -72 -69 -5 c-76 -6 -246 -3 -309 5 -198 26 -186 22
-239 84 -91 104 -243 247 -307 290 -35 23 -97 57 -136 77 -40 19 -73 36 -73
39 0 3 16 26 37 52 47 62 99 175 108 236 4 26 12 47 17 47 23 0 108 95 132
149 29 64 56 182 56 242 l0 39 65 0 c35 0 74 4 87 9 13 5 41 14 63 21 72 21
130 73 204 182 38 57 84 120 102 141 35 40 35 40 354 128 22 6 51 15 65 19 50
16 68 12 74 -17z m-1350 -1343 c112 -55 184 -106 309 -220 113 -103 137 -131
109 -124 -43 11 -385 98 -447 114 -38 10 -124 33 -190 51 -66 17 -132 34 -147
36 -16 3 -28 9 -28 13 0 10 139 116 199 152 58 35 84 32 195 -22z"/>
<path d="M3110 2563 c-52 -19 -130 -57 -130 -64 0 -5 19 -9 43 -9 27 -1 56 -9
82 -25 54 -34 68 -32 98 14 15 22 35 42 47 46 30 10 24 21 -19 33 -40 12 -95
14 -121 5z"/>
</g>
</svg>
